<?xml version="1.0" encoding="utf-8"?>
<!-- Generator: Adobe Illustrator 19.1.0, SVG Export Plug-In . SVG Version: 6.00 Build 0.Author: Vijay Krishnamoorthy  -->
<svg version="1.1" width="500px" height="100%" xmlns="http://www.w3.org/2000/svg" xmlns:xlink="http://www.w3.org/1999/xlink" x="0px" y="0px" viewBox="0 0 929.4 125.2"
	 style="enable-background:new 0 0 929.4 125.2;" xml:space="preserve">
<style type="text/css">
	.st0{fill:none;stroke:#FF0000;stroke-miterlimit:10;}
</style>
		<g>
			<path class="st0" d="M54.9,20.8H37.4v83.3h17.5V70.7h36.9v23.4c0,2-0.1,4.1-0.3,6.4c-0.2,2.3-0.8,4.5-1.8,6.8
				c-1,2.3-2.4,4.4-4.3,6.5s-4.6,3.9-8,5.5c-3.4,1.6-7.6,2.9-12.7,3.8c-5.1,1-11.2,1.4-18.5,1.4c-7.2,0-13.4-0.5-18.4-1.4
				s-9.3-2.2-12.7-3.8c-3.4-1.6-6-3.4-8-5.5s-3.4-4.2-4.4-6.5c-1-2.3-1.6-4.5-1.9-6.8c-0.2-2.3-0.4-4.4-0.4-6.4V30.6
				c0-2,0.1-4.1,0.4-6.3c0.2-2.3,0.9-4.5,1.8-6.7s2.4-4.4,4.4-6.4c2-2.1,4.6-3.9,8-5.4c3.4-1.6,7.6-2.8,12.6-3.7
				c5-0.9,11.1-1.4,18.3-1.4c7.3,0,13.5,0.5,18.6,1.4c5.1,0.9,9.4,2.2,12.8,3.7s6.1,3.4,8,5.4c1.9,2.1,3.4,4.2,4.3,6.4
				s1.6,4.5,1.8,6.7c0.2,2.3,0.3,4.4,0.3,6.3v23.6H54.9V20.8z"/>
			<path class="st0" d="M156.9,92.5l-3,29.2h-38.2l19-118.4H198l19.1,118.4h-36.3L176,92.5H156.9z M158.6,79.2h15.3l-7.7-58.6
				L158.6,79.2z"/>
			<path class="st0" d="M241.9,121.6V3.2h36.9V104h22.9v17.6H241.9z"/>
			<path class="st0" d="M328,121.6V3.2h36.9V104h22.9v17.6H328z"/>
			<path class="st0" d="M451.1,3.2v118.4h-36.9V3.2H451.1z"/>
			<path class="st0" d="M570.1,92.5c0,2-0.1,4.1-0.2,6.3c-0.1,2.2-0.6,4.4-1.3,6.6c-0.8,2.2-2,4.2-3.7,6.2c-1.7,2-4.1,3.7-7.1,5.2
				c-3.1,1.5-7,2.7-11.7,3.6c-4.7,0.9-10.6,1.3-17.5,1.3h-49.8V3.2h49.8c6.9,0,12.8,0.4,17.5,1.3c4.7,0.9,8.6,2.1,11.7,3.6
				c3.1,1.5,5.4,3.2,7.1,5.2c1.7,2,2.9,4,3.7,6.2c0.8,2.2,1.2,4.3,1.3,6.5c0.1,2.2,0.2,4.3,0.2,6.3V92.5z M515.7,104h17.5V20.8
				h-17.5V104z"/>
			<path class="st0" d="M636.3,92.5l-3,29.2H595L614,3.2h63.4l19.1,118.4h-36.3l-4.7-29.2H636.3z M638,79.2h15.3l-7.7-58.6L638,79.2
				z"/>
			<path class="st0" d="M717.6,51.3c2.6-0.6,4.9-1.5,7-2.6c0.9-0.5,1.8-1.1,2.6-1.7c0.8-0.6,1.6-1.3,2.3-2.2s1.2-1.7,1.6-2.7
				c0.4-1,0.6-2.1,0.6-3.3h-15.8V2.7h36.9v25c0,7.5-0.8,13.7-2.4,18.7c-1.6,4.9-3.9,8.8-6.9,11.8c-3,2.9-6.7,5-11,6.2
				s-9.3,1.8-14.8,1.8V51.3z"/>
			<path class="st0" d="M819.1,3.2v118.4h-36.9V32.6h-18.5V18.9c2.2,0,4.5-0.3,7-0.9c2.5-0.6,4.9-1.6,7.2-2.9
				c2.3-1.3,4.5-2.9,6.5-4.9c2-2,3.5-4.3,4.7-7H819.1z"/>
			<path class="st0" d="M883.3,0.6c7.2,0,13.6,0.6,19.2,1.9c5.6,1.3,10.4,3.3,14.4,6c3.9,2.7,6.9,6.2,9,10.4
				c2.1,4.2,3.1,9.3,3.1,15.2c0,2.7-0.3,5-0.8,7.1c-0.5,2.1-1.2,3.9-2,5.5c-0.8,1.6-1.7,3-2.8,4.1c-1,1.2-2.1,2.1-3.2,2.9
				c-2.5,1.9-5.4,3.1-8.7,3.8c3.2,0.6,6.1,2.1,8.7,4.5c1.1,1,2.1,2.2,3.2,3.6c1,1.4,2,3.2,2.8,5.2c0.8,2,1.5,4.3,2,7
				c0.5,2.6,0.8,5.7,0.8,9c0,3.7-0.2,7.1-0.7,10.4c-0.4,3.3-1.3,6.4-2.4,9.2c-1.2,2.8-2.8,5.3-5,7.6c-2.1,2.2-4.9,4.2-8.3,5.8
				c-3.4,1.6-7.5,2.8-12.3,3.7c-4.8,0.8-10.5,1.3-17,1.3s-12.2-0.4-17-1.3c-4.8-0.8-8.9-2.1-12.3-3.7c-3.4-1.6-6.1-3.5-8.3-5.8
				c-2.1-2.2-3.8-4.8-5-7.6c-1.2-2.8-2-5.9-2.4-9.1c-0.4-3.3-0.7-6.8-0.7-10.5c0-3.4,0.2-6.4,0.5-9c0.3-2.6,0.8-5,1.3-7
				c0.5-2,1.2-3.7,1.8-5.2c0.7-1.4,1.4-2.6,2.1-3.6c1.7-2.3,3.6-3.8,5.8-4.5c-2.2-0.6-4.1-1.9-5.8-3.9c-0.7-0.8-1.4-1.8-2.1-2.9
				c-0.7-1.2-1.3-2.5-1.9-4.1c-0.5-1.6-1-3.4-1.3-5.5c-0.3-2-0.5-4.4-0.5-7c0-5.9,1.1-11,3.2-15.2c2.1-4.2,5.1-7.7,9.1-10.4
				c3.9-2.7,8.7-4.7,14.4-6C869.9,1.3,876.2,0.6,883.3,0.6z M874.5,21v29.5H892V21H874.5z M874.5,104.3H892V68.1h-17.5V104.3z"/>
		</g>
</svg>
