<?xml version="1.0" encoding="utf-8"?>
<!-- Generator: Adobe Illustrator 18.1.1, SVG Export Plug-In . SVG Version: 6.00 Build 0)  -->
<svg version="1.1" id="Layer_1" xmlns="http://www.w3.org/2000/svg" xmlns:xlink="http://www.w3.org/1999/xlink" x="0px" y="0px"
	 viewBox="0 0 640 240" enable-background="new 0 0 640 240" xml:space="preserve">
<path fill="none" stroke="#000000" stroke-miterlimit="10" d="M625.13,240H14.87C6.69,240,0,233.31,0,225.13V14.87
	C0,6.69,6.69,0,14.87,0h610.26C633.31,0,640,6.69,640,14.87v210.26C640,233.31,633.31,240,625.13,240z"/>
<path fill="none" stroke="#000000" stroke-miterlimit="10" d="M623.5,235.5h-607c-6.6,0-12-5.4-12-12v-208c0-6.6,5.4-12,12-12h607
	c6.6,0,12,5.4,12,12v208C635.5,230.1,630.1,235.5,623.5,235.5z"/>
<g>
	<polygon fill="none" stroke="#00FFFF" stroke-width="4" stroke-miterlimit="10" points="23.21,120.91 119.63,24.66 216.05,120.91 
		119.63,217.16 	"/>
	<ellipse fill="none" stroke="#00FFFF" stroke-width="4" stroke-miterlimit="10" cx="121.63" cy="122.15" rx="52.84" ry="52.75"/>
	<g>
		<path fill="none" d="M104.74,133.08l-0.47-2.23h-0.11c-0.78,0.99-1.57,1.65-2.35,2c-0.78,0.35-1.75,0.52-2.92,0.52
			c-1.56,0-2.78-0.4-3.66-1.2c-0.89-0.8-1.33-1.94-1.33-3.42c0-3.17,2.54-4.83,7.62-4.98l2.67-0.09v-0.97
			c0-1.23-0.26-2.14-0.79-2.73c-0.53-0.59-1.38-0.88-2.55-0.88c-1.31,0-2.79,0.4-4.45,1.2l-0.73-1.82c0.78-0.42,1.62-0.75,2.55-0.99
			c0.92-0.24,1.85-0.36,2.78-0.36c1.88,0,3.26,0.41,4.17,1.24c0.9,0.83,1.36,2.16,1.36,4v10.71L104.74,133.08L104.74,133.08z
			 M99.37,131.41c1.48,0,2.65-0.41,3.49-1.22c0.84-0.81,1.27-1.95,1.27-3.41v-1.42l-2.38,0.1c-1.89,0.07-3.26,0.36-4.09,0.88
			c-0.84,0.52-1.25,1.33-1.25,2.43c0,0.86,0.26,1.51,0.78,1.96C97.7,131.18,98.43,131.41,99.37,131.41z"/>
		<path fill="none" d="M117.7,133.37c-2.27,0-4.04-0.7-5.28-2.1c-1.25-1.4-1.87-3.38-1.87-5.94c0-2.62,0.63-4.65,1.9-6.09
			c1.27-1.43,3.07-2.15,5.42-2.15c0.76,0,1.51,0.08,2.27,0.24c0.75,0.16,1.35,0.35,1.78,0.57l-0.73,2.02
			c-0.53-0.21-1.1-0.38-1.72-0.52c-0.62-0.14-1.17-0.21-1.65-0.21c-3.19,0-4.79,2.03-4.79,6.1c0,1.93,0.39,3.41,1.17,4.44
			c0.78,1.03,1.94,1.55,3.47,1.55c1.31,0,2.66-0.28,4.03-0.85v2.11C120.62,133.1,119.29,133.37,117.7,133.37z"/>
		<path fill="none" d="M145.44,133.08v-10.21c0-1.25-0.27-2.19-0.8-2.81c-0.53-0.62-1.37-0.94-2.5-0.94c-1.48,0-2.58,0.42-3.28,1.27
			c-0.71,0.85-1.06,2.16-1.06,3.93v8.76h-2.38v-10.21c0-1.25-0.27-2.19-0.8-2.81s-1.37-0.94-2.51-0.94c-1.49,0-2.58,0.45-3.28,1.34
			c-0.69,0.89-1.04,2.36-1.04,4.39v8.23h-2.38v-15.69h1.94l0.39,2.15h0.11c0.45-0.76,1.08-1.36,1.9-1.79
			c0.82-0.43,1.73-0.64,2.75-0.64c2.46,0,4.06,0.89,4.82,2.66h0.11c0.47-0.82,1.15-1.47,2.04-1.95c0.89-0.48,1.9-0.71,3.04-0.71
			c1.78,0,3.11,0.45,4,1.37c0.89,0.91,1.33,2.37,1.33,4.38v10.24L145.44,133.08L145.44,133.08z"/>
	</g>
</g>
<g>
	<path fill="none" d="M271.55,101.17h-3.09l-2.52-6.67h-10.09l-2.37,6.67h-3.1l9.13-23.81h2.89L271.55,101.17z M265.02,91.99
		l-3.74-10.14c-0.12-0.33-0.24-0.86-0.37-1.59h-0.07c-0.11,0.68-0.24,1.21-0.38,1.59l-3.7,10.14H265.02z"/>
	<path fill="none" d="M273.66,100.55v-2.92c1.48,1.1,3.12,1.64,4.9,1.64c2.39,0,3.59-0.8,3.59-2.39c0-0.45-0.1-0.84-0.31-1.15
		c-0.21-0.32-0.48-0.59-0.83-0.84c-0.35-0.24-0.76-0.46-1.23-0.66c-0.47-0.19-0.98-0.4-1.52-0.61c-0.75-0.3-1.41-0.6-1.98-0.9
		c-0.57-0.3-1.05-0.65-1.43-1.03s-0.67-0.82-0.86-1.3c-0.19-0.49-0.29-1.06-0.29-1.71c0-0.8,0.18-1.5,0.55-2.12s0.85-1.13,1.46-1.54
		c0.61-0.42,1.3-0.73,2.08-0.94c0.78-0.21,1.59-0.32,2.42-0.32c1.47,0,2.79,0.25,3.95,0.76v2.76c-1.25-0.82-2.69-1.23-4.32-1.23
		c-0.51,0-0.97,0.06-1.38,0.17c-0.41,0.12-0.76,0.28-1.05,0.49c-0.29,0.21-0.52,0.46-0.68,0.76c-0.16,0.29-0.24,0.62-0.24,0.97
		c0,0.44,0.08,0.81,0.24,1.11c0.16,0.3,0.4,0.56,0.71,0.8c0.31,0.23,0.69,0.44,1.13,0.63c0.44,0.19,0.95,0.39,1.51,0.61
		c0.75,0.29,1.43,0.58,2.03,0.89c0.6,0.3,1.11,0.65,1.53,1.03c0.42,0.38,0.74,0.82,0.97,1.32c0.23,0.5,0.34,1.09,0.34,1.78
		c0,0.84-0.19,1.57-0.56,2.19c-0.37,0.62-0.87,1.13-1.49,1.54c-0.62,0.41-1.33,0.71-2.14,0.91c-0.81,0.2-1.65,0.3-2.54,0.3
		C276.46,101.57,274.94,101.23,273.66,100.55z"/>
	<path fill="none" d="M288.08,100.55v-2.92c1.48,1.1,3.12,1.64,4.9,1.64c2.39,0,3.59-0.8,3.59-2.39c0-0.45-0.1-0.84-0.31-1.15
		c-0.21-0.32-0.48-0.59-0.83-0.84c-0.35-0.24-0.76-0.46-1.23-0.66c-0.47-0.19-0.98-0.4-1.52-0.61c-0.75-0.3-1.41-0.6-1.98-0.9
		c-0.57-0.3-1.05-0.65-1.43-1.03s-0.67-0.82-0.86-1.3c-0.19-0.49-0.29-1.06-0.29-1.71c0-0.8,0.18-1.5,0.55-2.12s0.85-1.13,1.46-1.54
		c0.61-0.42,1.3-0.73,2.08-0.94c0.78-0.21,1.59-0.32,2.42-0.32c1.47,0,2.79,0.25,3.95,0.76v2.76c-1.25-0.82-2.69-1.23-4.32-1.23
		c-0.51,0-0.97,0.06-1.38,0.17c-0.41,0.12-0.76,0.28-1.05,0.49c-0.29,0.21-0.52,0.46-0.68,0.76c-0.16,0.29-0.24,0.62-0.24,0.97
		c0,0.44,0.08,0.81,0.24,1.11c0.16,0.3,0.4,0.56,0.71,0.8c0.31,0.23,0.69,0.44,1.13,0.63c0.44,0.19,0.95,0.39,1.51,0.61
		c0.75,0.29,1.43,0.58,2.03,0.89c0.6,0.3,1.11,0.65,1.53,1.03c0.42,0.38,0.74,0.82,0.97,1.32c0.23,0.5,0.34,1.09,0.34,1.78
		c0,0.84-0.19,1.57-0.56,2.19c-0.37,0.62-0.87,1.13-1.49,1.54c-0.62,0.41-1.33,0.71-2.14,0.91c-0.81,0.2-1.65,0.3-2.54,0.3
		C290.88,101.57,289.37,101.23,288.08,100.55z"/>
	<path fill="none" d="M310.65,101.57c-2.51,0-4.52-0.79-6.02-2.38c-1.5-1.59-2.25-3.69-2.25-6.32c0-2.86,0.78-5.09,2.34-6.69
		c1.56-1.6,3.67-2.41,6.33-2.41c2.53,0,4.51,0.78,5.94,2.34c1.42,1.56,2.13,3.72,2.13,6.49c0,2.71-0.77,4.88-2.3,6.52
		C315.28,100.75,313.22,101.57,310.65,101.57z M310.84,86.06c-1.75,0-3.13,0.6-4.15,1.78c-1.02,1.19-1.53,2.83-1.53,4.92
		c0,2.01,0.51,3.6,1.54,4.76s2.41,1.74,4.13,1.74c1.76,0,3.11-0.57,4.06-1.71c0.95-1.14,1.42-2.76,1.42-4.86
		c0-2.13-0.47-3.76-1.42-4.91C313.96,86.64,312.6,86.06,310.84,86.06z"/>
	<path fill="none" d="M335.05,100.39c-1.31,0.79-2.86,1.18-4.65,1.18c-2.42,0-4.38-0.79-5.87-2.37c-1.49-1.58-2.23-3.62-2.23-6.13
		c0-2.8,0.8-5.05,2.41-6.75c1.6-1.7,3.75-2.55,6.42-2.55c1.49,0,2.81,0.28,3.95,0.83v2.79c-1.26-0.89-2.61-1.33-4.05-1.33
		c-1.74,0-3.16,0.62-4.27,1.87c-1.11,1.25-1.67,2.88-1.67,4.91c0,1.99,0.52,3.56,1.57,4.71c1.04,1.15,2.45,1.73,4.21,1.73
		c1.48,0,2.88-0.49,4.18-1.48V100.39z"/>
	<path fill="none" d="M340.56,79.85c-0.49,0-0.9-0.17-1.25-0.5c-0.34-0.33-0.51-0.75-0.51-1.26c0-0.51,0.17-0.93,0.51-1.27
		c0.34-0.34,0.76-0.51,1.25-0.51c0.5,0,0.92,0.17,1.27,0.51c0.35,0.34,0.52,0.76,0.52,1.27c0,0.49-0.17,0.9-0.52,1.25
		C341.48,79.68,341.06,79.85,340.56,79.85z M341.89,101.17h-2.72v-17h2.72V101.17z"/>
	<path fill="none" d="M359.57,101.17h-2.72v-2.66h-0.07c-1.18,2.04-2.93,3.05-5.23,3.05c-1.69,0-3.02-0.45-3.98-1.34
		c-0.96-0.9-1.44-2.09-1.44-3.57c0-3.18,1.87-5.02,5.61-5.54l5.1-0.71c0-2.89-1.17-4.33-3.5-4.33c-2.05,0-3.9,0.7-5.54,2.09v-2.79
		c1.67-1.06,3.6-1.59,5.78-1.59c4,0,5.99,2.11,5.99,6.34V101.17z M356.85,92.57l-4.1,0.56c-1.26,0.18-2.21,0.49-2.86,0.94
		s-0.96,1.24-0.96,2.38c0,0.83,0.3,1.51,0.89,2.03c0.59,0.53,1.38,0.79,2.37,0.79c1.35,0,2.47-0.47,3.34-1.42
		c0.88-0.95,1.32-2.14,1.32-3.59V92.57z"/>
	<path fill="none" d="M372.59,101c-0.64,0.35-1.49,0.53-2.54,0.53c-2.98,0-4.47-1.66-4.47-4.98V86.49h-2.92v-2.32h2.92v-4.15
		l2.72-0.88v5.03h4.28v2.32h-4.28v9.58c0,1.14,0.19,1.95,0.58,2.44c0.39,0.49,1.03,0.73,1.93,0.73c0.69,0,1.28-0.19,1.78-0.56V101z"
		/>
	<path fill="none" d="M377.62,79.85c-0.49,0-0.9-0.17-1.25-0.5s-0.51-0.75-0.51-1.26c0-0.51,0.17-0.93,0.51-1.27
		c0.34-0.34,0.76-0.51,1.25-0.51c0.5,0,0.92,0.17,1.27,0.51c0.35,0.34,0.52,0.76,0.52,1.27c0,0.49-0.17,0.9-0.52,1.25
		C378.54,79.68,378.11,79.85,377.62,79.85z M378.94,101.17h-2.72v-17h2.72V101.17z"/>
	<path fill="none" d="M391.56,101.57c-2.51,0-4.52-0.79-6.02-2.38c-1.5-1.59-2.25-3.69-2.25-6.32c0-2.86,0.78-5.09,2.34-6.69
		c1.56-1.6,3.67-2.41,6.33-2.41c2.53,0,4.51,0.78,5.94,2.34c1.42,1.56,2.13,3.72,2.13,6.49c0,2.71-0.77,4.88-2.3,6.52
		C396.2,100.75,394.14,101.57,391.56,101.57z M391.76,86.06c-1.75,0-3.13,0.6-4.15,1.78c-1.02,1.19-1.53,2.83-1.53,4.92
		c0,2.01,0.51,3.6,1.54,4.76s2.41,1.74,4.13,1.74c1.76,0,3.11-0.57,4.06-1.71c0.95-1.14,1.42-2.76,1.42-4.86
		c0-2.13-0.47-3.76-1.42-4.91C394.87,86.64,393.52,86.06,391.76,86.06z"/>
	<path fill="none" d="M418.49,101.17h-2.72v-9.7c0-3.61-1.32-5.41-3.95-5.41c-1.36,0-2.49,0.51-3.38,1.54
		c-0.89,1.02-1.34,2.32-1.34,3.88v9.7h-2.72v-17h2.72v2.82h0.07c1.28-2.15,3.14-3.22,5.58-3.22c1.86,0,3.28,0.6,4.27,1.8
		c0.99,1.2,1.48,2.94,1.48,5.2V101.17z"/>
	<path fill="none" d="M441.33,78.39c-0.53-0.3-1.13-0.45-1.81-0.45c-1.9,0-2.86,1.2-2.86,3.6v2.62h3.98v2.32h-3.98v14.68h-2.71
		V86.49h-2.91v-2.32h2.91v-2.76c0-1.78,0.51-3.19,1.54-4.23c1.03-1.03,2.31-1.55,3.85-1.55c0.83,0,1.49,0.1,1.98,0.3V78.39z"/>
	<path fill="none" d="M450.68,101.57c-2.51,0-4.52-0.79-6.02-2.38c-1.5-1.59-2.25-3.69-2.25-6.32c0-2.86,0.78-5.09,2.34-6.69
		c1.56-1.6,3.67-2.41,6.33-2.41c2.53,0,4.51,0.78,5.94,2.34c1.42,1.56,2.13,3.72,2.13,6.49c0,2.71-0.77,4.88-2.3,6.52
		C455.31,100.75,453.26,101.57,450.68,101.57z M450.88,86.06c-1.75,0-3.13,0.6-4.15,1.78c-1.02,1.19-1.53,2.83-1.53,4.92
		c0,2.01,0.51,3.6,1.54,4.76s2.41,1.74,4.13,1.74c1.76,0,3.11-0.57,4.06-1.71c0.95-1.14,1.42-2.76,1.42-4.86
		c0-2.13-0.47-3.76-1.42-4.91C453.99,86.64,452.64,86.06,450.88,86.06z"/>
	<path fill="none" d="M472.36,86.92c-0.48-0.37-1.16-0.55-2.06-0.55c-1.16,0-2.13,0.55-2.91,1.64c-0.78,1.1-1.17,2.59-1.17,4.48
		v8.67h-2.72v-17h2.72v3.5h0.07c0.39-1.2,0.98-2.13,1.78-2.8c0.8-0.67,1.69-1,2.67-1c0.71,0,1.25,0.08,1.63,0.23V86.92z"/>
	<path fill="none" d="M269.32,140.97c-1.76,0.93-3.95,1.39-6.57,1.39c-3.39,0-6.1-1.09-8.13-3.27c-2.04-2.18-3.05-5.04-3.05-8.58
		c0-3.81,1.15-6.88,3.44-9.23c2.29-2.35,5.2-3.52,8.72-3.52c2.26,0,4.13,0.33,5.61,0.98v2.97c-1.7-0.95-3.59-1.43-5.64-1.43
		c-2.73,0-4.95,0.91-6.65,2.74c-1.7,1.83-2.55,4.27-2.55,7.32c0,2.9,0.79,5.21,2.38,6.93c1.59,1.72,3.67,2.58,6.25,2.58
		c2.39,0,4.46-0.53,6.21-1.59V140.97z"/>
	<path fill="none" d="M280.91,142.37c-2.51,0-4.52-0.79-6.02-2.38c-1.5-1.59-2.25-3.69-2.25-6.32c0-2.86,0.78-5.09,2.34-6.69
		c1.56-1.6,3.67-2.41,6.33-2.41c2.53,0,4.51,0.78,5.94,2.34c1.42,1.56,2.13,3.72,2.13,6.49c0,2.71-0.77,4.88-2.3,6.52
		C285.55,141.55,283.49,142.37,280.91,142.37z M281.11,126.86c-1.75,0-3.13,0.6-4.15,1.78c-1.02,1.19-1.53,2.83-1.53,4.92
		c0,2.01,0.51,3.6,1.54,4.76s2.41,1.74,4.13,1.74c1.76,0,3.11-0.57,4.06-1.71c0.95-1.14,1.42-2.76,1.42-4.86
		c0-2.13-0.47-3.76-1.42-4.91C284.22,127.44,282.87,126.86,281.11,126.86z"/>
	<path fill="none" d="M317.87,141.97h-2.72v-9.76c0-1.88-0.29-3.24-0.87-4.08c-0.58-0.84-1.56-1.26-2.93-1.26
		c-1.16,0-2.15,0.53-2.96,1.59s-1.22,2.34-1.22,3.82v9.7h-2.72v-10.09c0-3.34-1.29-5.01-3.87-5.01c-1.2,0-2.18,0.5-2.96,1.5
		c-0.77,1-1.16,2.31-1.16,3.91v9.7h-2.72v-17h2.72v2.69h0.07c1.21-2.06,2.97-3.09,5.28-3.09c1.16,0,2.17,0.32,3.04,0.97
		s1.46,1.5,1.78,2.55c1.26-2.35,3.14-3.52,5.64-3.52c3.74,0,5.61,2.31,5.61,6.92V141.97z"/>
	<path fill="none" d="M325.8,139.51h-0.07v10.28h-2.72v-24.82h2.72v2.99h0.07c1.34-2.26,3.3-3.39,5.88-3.39
		c2.19,0,3.9,0.76,5.13,2.28c1.23,1.52,1.84,3.56,1.84,6.12c0,2.84-0.69,5.12-2.08,6.83s-3.28,2.56-5.68,2.56
		C328.7,142.37,327,141.41,325.8,139.51z M325.74,132.65v2.37c0,1.41,0.46,2.6,1.37,3.58c0.91,0.98,2.07,1.47,3.48,1.47
		c1.65,0,2.94-0.63,3.88-1.89c0.93-1.26,1.4-3.02,1.4-5.26c0-1.89-0.44-3.38-1.31-4.45c-0.87-1.07-2.06-1.61-3.55-1.61
		c-1.58,0-2.86,0.55-3.82,1.65C326.22,129.61,325.74,130.99,325.74,132.65z"/>
	<path fill="none" d="M356.75,141.97h-2.72v-2.69h-0.07c-1.13,2.06-2.88,3.09-5.25,3.09c-4.05,0-6.08-2.41-6.08-7.24v-10.16h2.71
		v9.73c0,3.59,1.37,5.38,4.12,5.38c1.33,0,2.42-0.49,3.28-1.47s1.29-2.26,1.29-3.84v-9.79h2.72V141.97z"/>
	<path fill="none" d="M370.13,141.8c-0.64,0.35-1.49,0.53-2.54,0.53c-2.98,0-4.47-1.66-4.47-4.98v-10.06h-2.92v-2.32h2.92v-4.15
		l2.72-0.88v5.03h4.28v2.32h-4.28v9.58c0,1.14,0.19,1.95,0.58,2.44c0.39,0.49,1.03,0.73,1.93,0.73c0.69,0,1.28-0.19,1.78-0.56V141.8
		z"/>
	<path fill="none" d="M375.16,120.65c-0.49,0-0.9-0.17-1.25-0.5c-0.34-0.33-0.51-0.75-0.51-1.26c0-0.51,0.17-0.93,0.51-1.27
		c0.34-0.34,0.76-0.51,1.25-0.51c0.5,0,0.92,0.17,1.27,0.51c0.35,0.34,0.52,0.76,0.52,1.27c0,0.49-0.17,0.9-0.52,1.25
		C376.08,120.48,375.66,120.65,375.16,120.65z M376.49,141.97h-2.72v-17h2.72V141.97z"/>
	<path fill="none" d="M396.11,141.97h-2.72v-9.7c0-3.61-1.32-5.41-3.95-5.41c-1.36,0-2.49,0.51-3.38,1.54
		c-0.89,1.02-1.34,2.32-1.34,3.88v9.7H382v-17h2.72v2.82h0.07c1.28-2.15,3.14-3.22,5.58-3.22c1.86,0,3.28,0.6,4.27,1.8
		c0.99,1.2,1.48,2.94,1.48,5.2V141.97z"/>
	<path fill="none" d="M415.75,140.61c0,6.24-2.99,9.36-8.96,9.36c-2.1,0-3.94-0.4-5.51-1.2v-2.72c1.92,1.06,3.74,1.59,5.48,1.59
		c4.18,0,6.28-2.22,6.28-6.67v-1.86h-0.07c-1.29,2.17-3.24,3.25-5.84,3.25c-2.11,0-3.82-0.76-5.11-2.27
		c-1.29-1.51-1.93-3.54-1.93-6.08c0-2.89,0.69-5.19,2.08-6.89c1.39-1.7,3.29-2.56,5.7-2.56c2.29,0,3.99,0.92,5.1,2.76h0.07v-2.36
		h2.72V140.61z M413.03,134.28v-2.51c0-1.35-0.46-2.51-1.37-3.47c-0.91-0.96-2.05-1.44-3.41-1.44c-1.68,0-3,0.61-3.95,1.83
		c-0.95,1.22-1.43,2.94-1.43,5.14c0,1.89,0.46,3.41,1.37,4.54c0.91,1.13,2.12,1.7,3.63,1.7c1.53,0,2.77-0.54,3.73-1.63
		C412.55,137.36,413.03,135.97,413.03,134.28z"/>
	<path fill="none" d="M455.21,141.97h-2.77V126c0-1.26,0.08-2.81,0.23-4.63h-0.07c-0.27,1.07-0.5,1.84-0.71,2.31l-8.13,18.29h-1.36
		l-8.12-18.16c-0.23-0.53-0.47-1.34-0.71-2.44h-0.07c0.09,0.95,0.13,2.51,0.13,4.67v15.94h-2.69v-23.81h3.69l7.3,16.6
		c0.56,1.27,0.93,2.22,1.1,2.86h0.1c0.48-1.31,0.86-2.28,1.15-2.92l7.45-16.54h3.49V141.97z"/>
	<path fill="none" d="M473.27,141.97h-2.72v-2.66h-0.07c-1.18,2.04-2.93,3.05-5.23,3.05c-1.69,0-3.02-0.45-3.98-1.34
		c-0.96-0.9-1.44-2.09-1.44-3.57c0-3.18,1.87-5.02,5.61-5.54l5.1-0.71c0-2.89-1.17-4.33-3.5-4.33c-2.05,0-3.9,0.7-5.54,2.09v-2.79
		c1.67-1.06,3.6-1.59,5.78-1.59c4,0,5.99,2.11,5.99,6.34V141.97z M470.55,133.37l-4.1,0.56c-1.26,0.18-2.21,0.49-2.86,0.94
		s-0.96,1.24-0.96,2.38c0,0.83,0.3,1.51,0.89,2.03c0.59,0.53,1.38,0.79,2.37,0.79c1.35,0,2.46-0.47,3.35-1.42
		c0.88-0.95,1.32-2.14,1.32-3.59V133.37z"/>
	<path fill="none" d="M489.99,141.19c-1.31,0.79-2.86,1.18-4.65,1.18c-2.42,0-4.38-0.79-5.87-2.37c-1.49-1.58-2.23-3.62-2.23-6.13
		c0-2.8,0.8-5.05,2.41-6.75c1.6-1.7,3.75-2.55,6.42-2.55c1.49,0,2.81,0.28,3.95,0.83v2.79c-1.26-0.89-2.61-1.33-4.05-1.33
		c-1.74,0-3.16,0.62-4.28,1.87c-1.11,1.25-1.67,2.88-1.67,4.91c0,1.99,0.52,3.56,1.57,4.71c1.05,1.15,2.45,1.73,4.21,1.73
		c1.48,0,2.88-0.49,4.18-1.48V141.19z"/>
	<path fill="none" d="M508.22,141.97h-2.72v-9.79c0-3.54-1.32-5.31-3.95-5.31c-1.33,0-2.45,0.51-3.35,1.54
		c-0.91,1.02-1.36,2.34-1.36,3.94v9.63h-2.72V116.8h2.72v10.99h0.07c1.31-2.15,3.17-3.22,5.58-3.22c3.83,0,5.74,2.31,5.74,6.92
		V141.97z"/>
	<path fill="none" d="M514.75,120.65c-0.49,0-0.9-0.17-1.25-0.5s-0.51-0.75-0.51-1.26c0-0.51,0.17-0.93,0.51-1.27
		c0.34-0.34,0.76-0.51,1.25-0.51c0.5,0,0.92,0.17,1.27,0.51c0.35,0.34,0.52,0.76,0.52,1.27c0,0.49-0.17,0.9-0.52,1.25
		C515.67,120.48,515.24,120.65,514.75,120.65z M516.07,141.97h-2.72v-17h2.72V141.97z"/>
	<path fill="none" d="M535.7,141.97h-2.72v-9.7c0-3.61-1.32-5.41-3.95-5.41c-1.36,0-2.49,0.51-3.38,1.54
		c-0.89,1.02-1.34,2.32-1.34,3.88v9.7h-2.72v-17h2.72v2.82h0.07c1.28-2.15,3.14-3.22,5.58-3.22c1.86,0,3.28,0.6,4.27,1.8
		c0.99,1.2,1.48,2.94,1.48,5.2V141.97z"/>
	<path fill="none" d="M554.49,134.15h-12c0.04,1.89,0.55,3.35,1.53,4.38s2.31,1.54,4.02,1.54c1.92,0,3.67-0.63,5.28-1.89v2.56
		c-1.49,1.08-3.47,1.63-5.93,1.63c-2.4,0-4.29-0.77-5.66-2.32s-2.06-3.72-2.06-6.52c0-2.65,0.75-4.8,2.25-6.47
		c1.5-1.67,3.36-2.5,5.59-2.5s3.95,0.72,5.16,2.16c1.22,1.44,1.83,3.44,1.83,5.99V134.15z M551.7,131.84
		c-0.01-1.57-0.39-2.79-1.14-3.67c-0.75-0.87-1.78-1.31-3.11-1.31c-1.28,0-2.37,0.46-3.27,1.38c-0.9,0.92-1.45,2.12-1.66,3.6H551.7z
		"/>
	<path fill="none" d="M567.47,127.72c-0.48-0.37-1.16-0.55-2.06-0.55c-1.16,0-2.13,0.55-2.91,1.64c-0.78,1.1-1.17,2.59-1.17,4.48
		v8.67h-2.72v-17h2.72v3.5h0.07c0.39-1.2,0.98-2.13,1.78-2.8c0.8-0.67,1.69-1,2.67-1c0.71,0,1.25,0.08,1.63,0.23V127.72z"/>
	<path fill="none" d="M583.96,124.97l-7.82,19.72c-1.39,3.52-3.35,5.28-5.88,5.28c-0.71,0-1.3-0.07-1.78-0.22v-2.44
		c0.59,0.2,1.12,0.3,1.61,0.3c1.37,0,2.4-0.82,3.09-2.46l1.36-3.22l-6.64-16.97h3.02l4.6,13.08c0.06,0.17,0.17,0.6,0.35,1.29h0.1
		c0.06-0.27,0.17-0.69,0.33-1.26l4.83-13.12H583.96z"/>
</g>
<g>
	<path fill="none" d="M197.72,209.62h-0.67l-4.05-9.16v10.87h-0.62V200h1.09l3.92,8.9l3.94-8.9h1.06v11.33h-0.62v-10.85
		L197.72,209.62z"/>
	<path fill="none" d="M205.19,200.01h0.62v11.32h-0.62V200.01z"/>
	<path fill="none" d="M211.96,205.25c1.9,0.38,3.97,1.01,3.84,3.33c-0.08,1.9-1.98,2.9-3.89,2.9c-1.5,0-3.2-0.66-3.87-1.97
		l0.56-0.26c0.58,1.06,2,1.63,3.35,1.63c1.52,0,3.03-0.67,3.23-2.32c0.13-1.97-1.68-2.4-3.39-2.77c-1.74-0.37-3.71-1.07-3.62-3.2
		c0.06-1.86,1.89-2.75,3.76-2.75c1.55,0,3.14,0.62,3.79,1.9c-0.24,0.11-0.35,0.14-0.56,0.24c-0.54-1.04-1.95-1.58-3.23-1.58
		c-1.55,0-3.04,0.58-3.15,2.21C208.65,204.21,210.19,204.89,211.96,205.25z"/>
	<path fill="none" d="M221.83,206.37c1.18,1.5,2.61,3.43,3.81,4.96h-0.74l-3.81-4.96h-2.4v4.96h-0.62V200h4.11
		c2.03,0,3.59,0.94,3.63,3.19c0,2.43-1.49,3.19-3.62,3.19H221.83z M222.2,205.82c1.98,0,2.99-0.7,2.99-2.63
		c0-1.9-1.25-2.61-2.99-2.58h-3.51v5.2H222.2z"/>
	<path fill="none" d="M228.07,200.01h0.62v11.32h-0.62V200.01z"/>
	<path fill="none" d="M237.07,209.62h-0.67l-4.05-9.16v10.87h-0.62V200h1.09l3.92,8.9l3.94-8.9h1.06v11.33h-0.62v-10.85
		L237.07,209.62z"/>
	<path fill="none" d="M247.4,199.77h0.91l4.16,11.56h-0.67l-1.42-3.94h-5.07c-0.42,1.22-0.96,2.72-1.38,3.94h-0.67L247.4,199.77z
		 M250.17,206.77l-2.32-6.53l-2.32,6.53H250.17z"/>
	<path fill="none" d="M259.9,210.69v0.62h-6.29v-11.33h0.62v10.71H259.9z"/>
	<path fill="none" d="M266.49,200h0.78l6.56,10.55V200h0.62v11.33h-0.91l-6.43-10.37v10.37h-0.62V200z"/>
	<path fill="none" d="M280.55,199.77h0.91l4.16,11.56h-0.67l-1.42-3.94h-5.07c-0.42,1.22-0.96,2.72-1.38,3.94h-0.67L280.55,199.77z
		 M283.32,206.77l-2.32-6.53l-2.32,6.53H283.32z"/>
	<path fill="none" d="M290.33,211.52h-1.01L285.17,200h0.69l3.95,11.06c1.23-3.51,2.69-7.52,3.92-11.04h0.67L290.33,211.52z"/>
	<path fill="none" d="M297.99,199.77h0.91l4.16,11.56h-0.67l-1.42-3.94h-5.07c-0.42,1.22-0.96,2.72-1.38,3.94h-0.67L297.99,199.77z
		 M300.76,206.77l-2.32-6.53l-2.32,6.53H300.76z"/>
	<path fill="none" d="M310.65,200.62h-3.78V200h4.4v8.23c0,2.16-1.97,3.27-3.92,3.27c-1.68,0-3.31-0.82-3.73-2.5
		c0.26-0.03,0.38-0.1,0.59-0.13c0.35,1.36,1.78,2.05,3.19,2.05c1.62,0,3.25-0.9,3.25-2.69V200.62z"/>
	<path fill="none" d="M320.46,200.62h-6.23v4.72h5.75v0.64h-5.75v4.71h6.23v0.62h-6.85V200h6.85V200.62z"/>
	<path fill="none" d="M329.61,200.62h-6.23v4.72h5.75v0.64h-5.75v4.71h6.23v0.62h-6.85V200h6.85V200.62z"/>
	<path fill="none" d="M342.01,209.62h-0.67l-4.05-9.16v10.87h-0.63V200h1.09l3.92,8.9l3.94-8.9h1.06v11.33h-0.62v-10.85
		L342.01,209.62z"/>
	<path fill="none" d="M349.42,200h0.62v8.07c0,1.84,1.73,2.74,3.46,2.74s3.47-0.9,3.47-2.74V200h0.62v8.07
		c0,2.24-2.05,3.38-4.1,3.38s-4.08-1.14-4.08-3.38V200z"/>
	<path fill="none" d="M360.41,200h0.78l6.56,10.55V200h0.62v11.33h-0.91l-6.43-10.37v10.37h-0.62V200z"/>
	<path fill="none" d="M371.13,203.15c0-2.21,2.16-3.31,4.32-3.31s4.34,1.1,4.34,3.31v5.03c0,2.21-2.18,3.33-4.34,3.33
		s-4.32-1.12-4.32-3.33V203.15z M371.75,208.17c0,1.81,1.84,2.71,3.7,2.71s3.7-0.9,3.71-2.71v-5.03c0-1.9-1.87-2.71-3.73-2.71
		c-1.84,0.02-3.68,0.83-3.68,2.71V208.17z"/>
	<path fill="none" d="M380.58,199.98h8.18v0.62h-3.78v10.71h-0.62V200.6h-3.78V199.98z"/>
	<path fill="none" d="M398.04,205.98h-6.93v5.35h-0.63V200h0.63v5.36h6.93V200h0.62v11.33h-0.62V205.98z"/>
	<path fill="none" d="M412.11,200.62h-3.78V200h4.4v8.23c0,2.16-1.97,3.27-3.92,3.27c-1.68,0-3.31-0.82-3.73-2.5
		c0.26-0.03,0.38-0.1,0.59-0.13c0.35,1.36,1.78,2.05,3.19,2.05c1.62,0,3.25-0.9,3.25-2.69V200.62z"/>
	<path fill="none" d="M417.78,199.77h0.91l4.16,11.56h-0.67l-1.42-3.94h-5.07c-0.42,1.22-0.96,2.72-1.38,3.94h-0.67L417.78,199.77z
		 M420.55,206.77l-2.32-6.53l-2.32,6.53H420.55z"/>
	<path fill="none" d="M424.66,200.01h0.62v11.32h-0.62V200.01z"/>
	<path fill="none" d="M428.36,200h0.78l6.56,10.55V200h0.62v11.33h-0.91l-6.43-10.37v10.37h-0.62V200z"/>
	<path fill="none" d="M451.03,200.62h-6.23v4.72h5.75v0.64h-5.75v4.71h6.23v0.62h-6.85V200h6.85V200.62z"/>
	<path fill="none" d="M453.33,200h0.78l6.56,10.55V200h0.62v11.33h-0.91l-6.43-10.37v10.37h-0.62V200z"/>
	<path fill="none" d="M463.8,203.17c0-2.16,2.05-3.28,4.08-3.28c1.5,0,2.99,0.58,3.65,1.81c-0.22,0.11-0.35,0.19-0.56,0.29
		c-0.56-1.02-1.84-1.47-3.12-1.47c-1.71,0-3.43,0.88-3.43,2.66v4.95c0,1.81,1.73,2.69,3.46,2.69s3.47-0.88,3.47-2.69v-1.68h-3.47
		v-0.62h4.1v2.31c0,2.23-2.05,3.33-4.1,3.33s-4.08-1.1-4.08-3.33V203.17z"/>
	<path fill="none" d="M474.49,200.01h0.62v11.32h-0.62V200.01z"/>
	<path fill="none" d="M478.18,200h0.78l6.56,10.55V200h0.62v11.33h-0.91l-6.43-10.37v10.37h-0.62V200z"/>
	<path fill="none" d="M496.06,200.62h-6.23v4.72h5.75v0.64h-5.75v4.71h6.23v0.62h-6.85V200h6.85V200.62z"/>
	<path fill="none" d="M505.21,200.62h-6.23v4.72h5.75v0.64h-5.75v4.71h6.23v0.62h-6.85V200h6.85V200.62z"/>
	<path fill="none" d="M511.27,206.37c1.18,1.5,2.61,3.43,3.81,4.96h-0.74l-3.81-4.96h-2.4v4.96h-0.62V200h4.11
		c2.03,0,3.59,0.94,3.63,3.19c0,2.43-1.49,3.19-3.62,3.19H511.27z M511.64,205.82c1.98,0,2.99-0.7,2.99-2.63
		c0-1.9-1.25-2.61-2.99-2.58h-3.51v5.2H511.64z"/>
	<path fill="none" d="M517.51,200.01h0.62v11.32h-0.62V200.01z"/>
	<path fill="none" d="M521.21,200h0.78l6.56,10.55V200h0.62v11.33h-0.91l-6.43-10.37v10.37h-0.62V200z"/>
	<path fill="none" d="M531.67,203.17c0-2.16,2.05-3.28,4.08-3.28c1.5,0,2.99,0.58,3.65,1.81c-0.22,0.11-0.35,0.19-0.56,0.29
		c-0.56-1.02-1.84-1.47-3.12-1.47c-1.71,0-3.43,0.88-3.43,2.66v4.95c0,1.81,1.73,2.69,3.46,2.69s3.47-0.88,3.47-2.69v-1.68h-3.47
		v-0.62h4.1v2.31c0,2.23-2.05,3.33-4.1,3.33s-4.08-1.1-4.08-3.33V203.17z"/>
	<path fill="none" d="M546.95,203.15c0-2.16,2.08-3.28,4.13-3.28c1.5,0,3.01,0.56,3.67,1.79c-0.22,0.11-0.35,0.19-0.56,0.29
		c-0.58-0.96-1.87-1.46-3.15-1.46c-1.71,0-3.46,0.88-3.46,2.66v5.03c0,1.78,1.75,2.66,3.46,2.66c1.26,0,2.58-0.5,3.17-1.46
		c0.22,0.11,0.34,0.18,0.54,0.27c-0.66,1.22-2.19,1.81-3.71,1.81c-2.02,0-4.08-1.1-4.08-3.28V203.15z"/>
	<path fill="none" d="M556.39,203.15c0-2.21,2.16-3.31,4.32-3.31s4.34,1.1,4.34,3.31v5.03c0,2.21-2.18,3.33-4.34,3.33
		s-4.32-1.12-4.32-3.33V203.15z M557.01,208.17c0,1.81,1.84,2.71,3.7,2.71s3.7-0.9,3.71-2.71v-5.03c0-1.9-1.87-2.71-3.73-2.71
		c-1.84,0.02-3.68,0.83-3.68,2.71V208.17z"/>
	<path fill="none" d="M573.91,210.69v0.62h-6.29v-11.33h0.62v10.71H573.91z"/>
	<path fill="none" d="M582.01,210.69v0.62h-6.29v-11.33h0.62v10.71H582.01z"/>
	<path fill="none" d="M590.65,200.62h-6.23v4.72h5.75v0.64h-5.75v4.71h6.23v0.62h-6.85V200h6.85V200.62z"/>
	<path fill="none" d="M592.39,203.17c0-2.16,2.05-3.28,4.08-3.28c1.5,0,2.99,0.58,3.65,1.81c-0.22,0.11-0.35,0.19-0.56,0.29
		c-0.56-1.02-1.84-1.47-3.12-1.47c-1.71,0-3.43,0.88-3.43,2.66v4.95c0,1.81,1.73,2.69,3.46,2.69s3.47-0.88,3.47-2.69v-1.68h-3.47
		v-0.62h4.1v2.31c0,2.23-2.05,3.33-4.1,3.33s-4.08-1.1-4.08-3.33V203.17z"/>
	<path fill="none" d="M609.91,200.62h-6.23v4.72h5.75v0.64h-5.75v4.71h6.23v0.62h-6.85V200h6.85V200.62z"/>
</g>
</svg>
